<?xml version="1.0" encoding="UTF-8"?>
<svg width="44px" height="44px" viewBox="0 0 44 44" version="1.1" xmlns="http://www.w3.org/2000/svg" xmlns:xlink="http://www.w3.org/1999/xlink">
    <title>E5C72E93-B6AC-4DEC-98E3-B98306860527</title>
    <g id="ðŸ¿-video" stroke="none" stroke-width="1" fill="none" fill-rule="evenodd">
        <g id="video-xlarge-1200px" transform="translate(-492.000000, -397.000000)" fill="#F1F3F2">
            <g id="player/player-xxlarge-to-xlarge" transform="translate(56.000000, 136.000000)">
                <g id="main-control" transform="translate(436.000000, 251.000000)">
                    <g id="icons/back10-player-icon" transform="translate(0.000000, 10.000000)">
                        <path d="M22,3.66666667 L22,6.11111111 C13.2407407,6.11111111 6.11111111,13.2407407 6.11111111,22 C6.11111111,30.7592593 13.2407407,37.8888889 22,37.8888889 C30.7592593,37.8888889 37.8888889,30.7592593 37.8888889,22 C37.8888889,17.4777778 35.9333333,13.2 32.6740741,10.2259259 L29.4555556,13.4444444 L27.8666667,4.07407407 L37.237037,5.66296296 L34.3851852,8.51481481 C38.1333333,11.937037 40.3333333,16.8259259 40.3333333,22 C40.3333333,32.1037037 32.1037037,40.3333333 22,40.3333333 C11.8962963,40.3333333 3.66666667,32.1037037 3.66666667,22 C3.66666667,11.8962963 11.8962963,3.66666667 22,3.66666667 Z M25.6886979,16.9073957 C25.7020436,16.9075451 25.7143735,16.9077356 25.7256357,16.9079231 L25.8330518,16.9080201 C26.3362041,16.9011681 29.1296296,16.9106399 29.1296296,21.1398195 L29.1296296,22.8601805 C29.1296296,27.3005717 26.1056432,27.0913386 25.7799831,27.0913386 L25.7570091,27.0915451 C25.7481457,27.0916674 25.7380956,27.0918277 25.7269144,27.0919799 L25.5972532,27.0918872 C24.8637206,27.0788148 22.4303365,26.8074148 22.4303365,22.8601805 L22.4303365,21.1398195 C22.4303365,17.161969 24.8571382,16.9155228 25.596846,16.9073423 Z M19.1969972,17.024902 L19.1969972,26.9518499 L17.2197752,26.9518499 L17.2197752,19.3729623 L14.8703704,20.093654 L14.8703704,18.4895336 L18.9876443,17.024902 L19.1969972,17.024902 Z M25.8885263,18.5132997 L25.7799831,18.5127818 C24.91931,18.5127818 24.4075585,19.1172329 24.4075585,20.860842 L24.4075585,23.1159098 C24.4075585,24.9060152 24.91931,25.5104664 25.8032445,25.5104664 C26.687179,25.5104664 27.1756691,24.9060152 27.1756691,23.1159098 L27.1756691,20.860842 C27.1756691,19.1172329 26.6639176,18.4895336 25.7799831,18.5127818 Z" id="Combined-Shape"></path>
                    </g>
                </g>
            </g>
        </g>
    </g>
</svg>