<?xml version="1.0" encoding="UTF-8"?>
<svg width="24px" height="24px" viewBox="0 0 24 24" version="1.1" xmlns="http://www.w3.org/2000/svg" xmlns:xlink="http://www.w3.org/1999/xlink">
    <title>icons/reduce-player-icon</title>
    <g id="🧰-symbols" stroke="none" stroke-width="1" fill="none" fill-rule="evenodd">
        <g id="icons/reduce-player-icon">
            <polygon id="Path" points="0 0 24 0 24 24 0 24"></polygon>
            <path d="M8,19 L10,19 L10,14 L5,14 L5,16 L8,16 L8,19 Z M10,5 L8,5 L8,8 L5,8 L5,10 L10,10 L10,5 Z M16,16 L19,16 L19,14 L14,14 L14,19 L16,19 L16,16 Z M19,10 L19,8 L16,8 L16,5 L14,5 L14,10 L19,10 Z" id="Shape" fill="#F1F3F2"></path>
        </g>
    </g>
</svg>