<?xml version="1.0" encoding="UTF-8"?><svg version="1.1" width="24px" height="24px" viewBox="0 0 24.0 24.0" xmlns="http://www.w3.org/2000/svg" xmlns:xlink="http://www.w3.org/1999/xlink"><defs><clipPath id="i0"><path d="M3.65384615,0 C4.05212843,-1.29440859e-15 4.375,0.322871575 4.375,0.721153846 L4.375,18.0288462 C4.375,18.4271284 4.05212843,18.75 3.65384615,18.75 L0.721153846,18.75 C0.322871575,18.75 4.87755109e-17,18.4271284 0,18.0288462 L0,0.721153846 C-1.59797813e-16,0.322871575 0.322871575,7.31632663e-17 0.721153846,0 Z M12.4038462,0 C12.8021284,-1.29440859e-15 13.125,0.322871575 13.125,0.721153846 L13.125,18.0288462 C13.125,18.4271284 12.8021284,18.75 12.4038462,18.75 L9.47115385,18.75 C9.07287157,18.75 8.75,18.4271284 8.75,18.0288462 L8.75,0.721153846 C8.75,0.322871575 9.07287157,7.31632663e-17 9.47115385,0 Z"></path></clipPath></defs><g transform="translate(5.4375 2.625)"><g clip-path="url(#i0)"><polygon points="0,0 13.125,0 13.125,18.75 0,18.75 0,0" stroke="none" fill="#F0F3F1"></polygon></g></g></svg>