<?xml version="1.0" encoding="UTF-8"?>
<svg width="24px" height="24px" viewBox="0 0 24 24" version="1.1" xmlns="http://www.w3.org/2000/svg" xmlns:xlink="http://www.w3.org/1999/xlink">
    <title>icons/sound-mid</title>
    <g id="🧰-symbols" stroke="none" stroke-width="1" fill="none" fill-rule="evenodd">
        <g id="icons/sound-mid">
            <rect id="Rectangle" x="0" y="0" width="24" height="24"></rect>
            <path d="M3,10 L3,14 C3,14.55 3.45,15 4,15 L7,15 L10.29,18.29 C10.92,18.92 12,18.47 12,17.58 L12,6.41 C12,5.52 10.92,5.07 10.29,5.7 L7,9 L4,9 C3.45,9 3,9.45 3,10 Z M16.5,12 C16.5,10.23 15.48,8.71 14,7.97 L14,16.02 C15.48,15.29 16.5,13.77 16.5,12 Z" id="Shape" fill="#F1F3F2"></path>
        </g>
    </g>
</svg>