<?xml version="1.0" encoding="UTF-8"?>
<svg width="28px" height="28px" viewBox="0 0 28 28" version="1.1" xmlns="http://www.w3.org/2000/svg" xmlns:xlink="http://www.w3.org/1999/xlink">
    <title>2C99AE39-3102-47E0-B658-57B24D727D8D</title>
    <g id="ðŸ¿-video" stroke="none" stroke-width="1" fill="none" fill-rule="evenodd">
        <g id="video-xlarge-1200px" transform="translate(-1056.000000, -156.000000)">
            <g id="player/player-xxlarge-to-xlarge" transform="translate(56.000000, 136.000000)">
                <g id="feature" transform="translate(956.000000, 20.000000)">
                    <g id="icons/settings-player-icon" transform="translate(44.000000, 0.000000)">
                        <rect id="Rectangle" x="0" y="0" width="28" height="28"></rect>
                        <path d="M21.1992034,14 C21.1992034,13.7853333 21.1896045,13.58 21.1704066,13.3653333 L22.9558091,12.0493333 C23.3397666,11.7693333 23.4453549,11.2466667 23.2053815,10.836 L21.4103801,7.82133333 C21.1704066,7.41066667 20.652064,7.24266667 20.2105128,7.42933333 L18.1467412,8.27866667 C17.7915805,8.036 17.4172219,7.82133333 17.0236654,7.644 L16.7452962,5.488 C16.6877026,5.02133333 16.2749483,4.66666667 15.7950014,4.66666667 L12.2145975,4.66666667 C11.7250517,4.66666667 11.3122974,5.02133333 11.2547038,5.488 L10.9763346,7.644 C10.5827781,7.82133333 10.2084195,8.036 9.85325882,8.27866667 L7.78948717,7.42933333 C7.34793603,7.24266667 6.82959338,7.41066667 6.58961994,7.82133333 L4.79461855,10.8453333 C4.5546451,11.256 4.66023342,11.7693333 5.04419093,12.0586667 L6.82959338,13.3746667 C6.81039551,13.58 6.80079657,13.7853333 6.80079657,14 C6.80079657,14.2146667 6.81039551,14.42 6.82959338,14.6346667 L5.04419093,15.9506667 C4.66023342,16.2306667 4.5546451,16.7533333 4.79461855,17.164 L6.58961994,20.1786667 C6.82959338,20.5893333 7.34793603,20.7573333 7.78948717,20.5706667 L9.85325882,19.7213333 C10.2084195,19.964 10.5827781,20.1786667 10.9763346,20.356 L11.2547038,22.512 C11.3122974,22.9786667 11.7250517,23.3333333 12.2049986,23.3333333 L15.7854025,23.3333333 C16.2653493,23.3333333 16.6781037,22.9786667 16.7356973,22.512 L17.0140665,20.356 C17.407623,20.1786667 17.7819815,19.964 18.1371422,19.7213333 L20.2009139,20.5706667 C20.642465,20.7573333 21.1608077,20.5893333 21.4007811,20.1786667 L23.1957825,17.164 C23.435756,16.7533333 23.3301676,16.24 22.9462101,15.9506667 L21.1608077,14.6346667 C21.1896045,14.42 21.1992034,14.2146667 21.1992034,14 Z M14.0383958,17.2666667 C12.1858007,17.2666667 10.6787675,15.8013333 10.6787675,14 C10.6787675,12.1986667 12.1858007,10.7333333 14.0383958,10.7333333 C15.8909908,10.7333333 17.398024,12.1986667 17.398024,14 C17.398024,15.8013333 15.8909908,17.2666667 14.0383958,17.2666667 Z" id="Shape" fill="#F1F3F2"></path>
                    </g>
                </g>
            </g>
        </g>
    </g>
</svg>